<?xml version="1.0" encoding="utf-8"?>
<!-- Generator: Adobe Illustrator 19.1.0, SVG Export Plug-In . SVG Version: 6.00 Build 0)  -->
<svg version="1.1" id="Layer_1" xmlns="http://www.w3.org/2000/svg" xmlns:xlink="http://www.w3.org/1999/xlink" x="0px" y="0px"
	 viewBox="0 0 50 50" enable-background="new 0 0 50 50" xml:space="preserve">
<path fill="#00B2E2" d="M26.8,48.1l15.6-9.2c4.5-3.3,7.3-8.3,7.6-14V1.6l-2.3-1.3L33.8,8l0,23.8c0,2.7-0.7,5.3-2.1,7.6
	c-0.3,0-0.5,0-0.8,0c-6.9,0-12.6-5.5-12.6-12.3V1.3L15.9,0L0,9v22.7C0,41.8,8.3,50,18.6,50C21.4,50,24.2,49.3,26.8,48.1z M37.2,31.7
	V9.9l9.4-5.2l0,20.1c-0.4,7.6-5.9,12.1-10.7,13.7C36.7,36.4,37.2,34.1,37.2,31.7z M3.4,31.7V10.9l11.4-6.5V27
	c0,8,6.1,14.7,14.1,15.6c-2.8,2.6-6.5,4-10.4,4C10.2,46.6,3.4,40,3.4,31.7z"/>
</svg>
