<?xml version="1.0" encoding="utf-8"?>
<!-- Generator: Adobe Illustrator 19.1.0, SVG Export Plug-In . SVG Version: 6.00 Build 0)  -->
<svg version="1.1" id="Layer_1" xmlns="http://www.w3.org/2000/svg" xmlns:xlink="http://www.w3.org/1999/xlink" x="0px" y="0px"
	 viewBox="0 0 30 30" enable-background="new 0 0 30 30" xml:space="preserve">
<g>
	<path fill-rule="evenodd" clip-rule="evenodd" fill="#2E3D49" d="M9.5,13.6v3.3H15c-0.2,1.4-1.6,4.1-5.4,4.1c-3.3,0-5.9-2.7-5.9-6
		c0-3.3,2.7-6,5.9-6c1.9,0,3.1,0.8,3.8,1.5L15.9,8c-1.7-1.6-3.8-2.5-6.4-2.5C4.3,5.5,0,9.7,0,15c0,5.3,4.3,9.5,9.5,9.5
		c5.5,0,9.2-3.9,9.2-9.3c0-0.6-0.1-1.1-0.2-1.6H9.5L9.5,13.6L9.5,13.6z M9.5,13.6"/>
	<polyline fill-rule="evenodd" clip-rule="evenodd" fill="#2E3D49" points="30,13.6 27.3,13.6 27.3,10.9 24.5,10.9 24.5,13.6 
		21.8,13.6 21.8,16.4 24.5,16.4 24.5,19.1 27.3,19.1 27.3,16.4 30,16.4 	"/>
</g>
</svg>
