<svg xmlns="http://www.w3.org/2000/svg" width="264" height="28" viewBox="0 0 264 28">
  <g fill="none" fill-rule="evenodd">
    <path fill="#525C65" d="M4.359375,21.15625 C3.80208055,21.15625 3.29297105,21.0533864 2.83203125,20.8476562 C2.37109145,20.6419261 1.98437656,20.325523 1.671875,19.8984375 L1.578125,19.8984375 C1.64062531,20.39844 1.671875,20.8723936 1.671875,21.3203125 L1.671875,24.84375 L0.375,24.84375 L0.375,12.4375 L1.4296875,12.4375 L1.609375,13.609375 L1.671875,13.609375 C2.00521,13.1406227 2.39322695,12.8020844 2.8359375,12.59375 C3.27864805,12.3854156 3.78645547,12.28125 4.359375,12.28125 C5.49479734,12.28125 6.37109066,12.669267 6.98828125,13.4453125 C7.60547184,14.221358 7.9140625,15.3098888 7.9140625,16.7109375 C7.9140625,18.1171945 7.60026355,19.2096315 6.97265625,19.9882812 C6.34504895,20.766931 5.47396391,21.15625 4.359375,21.15625 L4.359375,21.15625 Z M4.171875,13.3828125 C3.29687063,13.3828125 2.66406445,13.6249976 2.2734375,14.109375 C1.88281055,14.5937524 1.68229172,15.364578 1.671875,16.421875 L1.671875,16.7109375 C1.671875,17.9140685 1.87239383,18.774737 2.2734375,19.2929688 C2.67448117,19.8112005 3.31770391,20.0703125 4.203125,20.0703125 C4.94271203,20.0703125 5.52213332,19.7708363 5.94140625,19.171875 C6.36067918,18.5729137 6.5703125,17.7474011 6.5703125,16.6953125 C6.5703125,15.6275988 6.36067918,14.8085966 5.94140625,14.2382812 C5.52213332,13.6679659 4.93229547,13.3828125 4.171875,13.3828125 L4.171875,13.3828125 Z M17.5703125,16.7109375 C17.5703125,18.1067778 17.2187535,19.1966107 16.515625,19.9804688 C15.8124965,20.7643268 14.841152,21.15625 13.6015625,21.15625 C12.8359337,21.15625 12.156253,20.9765643 11.5625,20.6171875 C10.968747,20.2578107 10.5104183,19.7421909 10.1875,19.0703125 C9.86458172,18.3984341 9.703125,17.6119837 9.703125,16.7109375 C9.703125,15.3150972 10.0520798,14.2278685 10.75,13.4492188 C11.4479202,12.670569 12.4166605,12.28125 13.65625,12.28125 C14.8541727,12.28125 15.8059861,12.6796835 16.5117188,13.4765625 C17.2174514,14.2734415 17.5703125,15.3515557 17.5703125,16.7109375 L17.5703125,16.7109375 Z M11.046875,16.7109375 C11.046875,17.804693 11.2656228,18.638018 11.703125,19.2109375 C12.1406272,19.783857 12.7838499,20.0703125 13.6328125,20.0703125 C14.4817751,20.0703125 15.1262999,19.7851591 15.5664062,19.2148438 C16.0065126,18.6445284 16.2265625,17.8099013 16.2265625,16.7109375 C16.2265625,15.6223904 16.0065126,14.7955757 15.5664062,14.2304688 C15.1262999,13.6653618 14.4765668,13.3828125 13.6171875,13.3828125 C12.7682249,13.3828125 12.1276063,13.6614555 11.6953125,14.21875 C11.2630187,14.7760445 11.046875,15.6067653 11.046875,16.7109375 L11.046875,16.7109375 Z M26.8359375,21 L25.265625,15.9765625 C25.1666662,15.6692693 24.9817722,14.9713596 24.7109375,13.8828125 L24.6484375,13.8828125 C24.4401031,14.7942754 24.2578133,15.4973934 24.1015625,15.9921875 L22.484375,21 L20.984375,21 L18.6484375,12.4375 L20.0078125,12.4375 C20.5598986,14.5885524 20.9804673,16.2265569 21.2695312,17.3515625 C21.5585952,18.4765681 21.7239581,19.234373 21.765625,19.625 L21.828125,19.625 C21.885417,19.3281235 21.9778639,18.9440128 22.1054688,18.4726562 C22.2330736,18.0012997 22.3437495,17.6276055 22.4375,17.3515625 L24.0078125,12.4375 L25.4140625,12.4375 L26.9453125,17.3515625 C27.2369806,18.2474003 27.4348953,18.999997 27.5390625,19.609375 L27.6015625,19.609375 C27.6223959,19.4218741 27.678385,19.1328145 27.7695312,18.7421875 C27.8606775,18.3515605 28.4036409,16.2500191 29.3984375,12.4375 L30.7421875,12.4375 L28.375,21 L26.8359375,21 Z M35.90625,21.15625 C34.6406187,21.15625 33.6419307,20.7708372 32.9101562,20 C32.1783818,19.2291628 31.8125,18.158861 31.8125,16.7890625 C31.8125,15.4088473 32.1523404,14.3125041 32.8320312,13.5 C33.5117221,12.6874959 34.4244734,12.28125 35.5703125,12.28125 C36.6432345,12.28125 37.4921844,12.6341111 38.1171875,13.3398438 C38.7421906,14.0455764 39.0546875,14.9765567 39.0546875,16.1328125 L39.0546875,16.953125 L33.15625,16.953125 C33.1822918,17.9583384 33.4361955,18.7213516 33.9179688,19.2421875 C34.399742,19.7630234 35.0781206,20.0234375 35.953125,20.0234375 C36.8750046,20.0234375 37.7864538,19.8307311 38.6875,19.4453125 L38.6875,20.6015625 C38.2291644,20.7994802 37.795575,20.9414058 37.3867188,21.0273438 C36.9778625,21.1132817 36.4843779,21.15625 35.90625,21.15625 L35.90625,21.15625 Z M35.5546875,13.3671875 C34.8671841,13.3671875 34.3190125,13.5911436 33.9101562,14.0390625 C33.5013,14.4869814 33.260417,15.1067669 33.1875,15.8984375 L37.6640625,15.8984375 C37.6640625,15.0807251 37.4817727,14.4544293 37.1171875,14.0195312 C36.7526023,13.5846332 36.2317742,13.3671875 35.5546875,13.3671875 L35.5546875,13.3671875 Z M45.171875,12.28125 C45.5520852,12.28125 45.8932277,12.3124997 46.1953125,12.375 L46.015625,13.578125 C45.6614566,13.4999996 45.3489597,13.4609375 45.078125,13.4609375 C44.3854132,13.4609375 43.7929712,13.7421847 43.3007812,14.3046875 C42.8085913,14.8671903 42.5625,15.5677041 42.5625,16.40625 L42.5625,21 L41.265625,21 L41.265625,12.4375 L42.3359375,12.4375 L42.484375,14.0234375 L42.546875,14.0234375 C42.8645849,13.466143 43.2473936,13.0364598 43.6953125,12.734375 C44.1432314,12.4322902 44.635414,12.28125 45.171875,12.28125 L45.171875,12.28125 Z M51.4140625,21.15625 C50.1484312,21.15625 49.1497432,20.7708372 48.4179688,20 C47.6861943,19.2291628 47.3203125,18.158861 47.3203125,16.7890625 C47.3203125,15.4088473 47.6601529,14.3125041 48.3398438,13.5 C49.0195346,12.6874959 49.9322859,12.28125 51.078125,12.28125 C52.151047,12.28125 52.9999969,12.6341111 53.625,13.3398438 C54.2500031,14.0455764 54.5625,14.9765567 54.5625,16.1328125 L54.5625,16.953125 L48.6640625,16.953125 C48.6901043,17.9583384 48.944008,18.7213516 49.4257812,19.2421875 C49.9075545,19.7630234 50.5859331,20.0234375 51.4609375,20.0234375 C52.3828171,20.0234375 53.2942663,19.8307311 54.1953125,19.4453125 L54.1953125,20.6015625 C53.7369769,20.7994802 53.3033875,20.9414058 52.8945312,21.0273438 C52.485675,21.1132817 51.9921904,21.15625 51.4140625,21.15625 L51.4140625,21.15625 Z M51.0625,13.3671875 C50.3749966,13.3671875 49.826825,13.5911436 49.4179688,14.0390625 C49.0091125,14.4869814 48.7682295,15.1067669 48.6953125,15.8984375 L53.171875,15.8984375 C53.171875,15.0807251 52.9895852,14.4544293 52.625,14.0195312 C52.2604148,13.5846332 51.7395867,13.3671875 51.0625,13.3671875 L51.0625,13.3671875 Z M62.6015625,19.8515625 L62.53125,19.8515625 C61.9322887,20.7213585 61.0364643,21.15625 59.84375,21.15625 C58.7239527,21.15625 57.8528677,20.7734413 57.2304688,20.0078125 C56.6080698,19.2421837 56.296875,18.1536529 56.296875,16.7421875 C56.296875,15.3307221 56.6093719,14.2343789 57.234375,13.453125 C57.8593781,12.6718711 58.7291611,12.28125 59.84375,12.28125 C61.0052141,12.28125 61.8958302,12.7031208 62.515625,13.546875 L62.6171875,13.546875 L62.5625,12.9296875 L62.53125,12.328125 L62.53125,8.84375 L63.828125,8.84375 L63.828125,21 L62.7734375,21 L62.6015625,19.8515625 Z M60.0078125,20.0703125 C60.8932336,20.0703125 61.5351543,19.8294295 61.9335938,19.3476562 C62.3320332,18.865883 62.53125,18.088547 62.53125,17.015625 L62.53125,16.7421875 C62.53125,15.5286398 62.3294291,14.662763 61.9257812,14.1445312 C61.5221334,13.6262995 60.8776086,13.3671875 59.9921875,13.3671875 C59.231767,13.3671875 58.6497416,13.6627575 58.2460938,14.2539062 C57.8424459,14.845055 57.640625,15.6796821 57.640625,16.7578125 C57.640625,17.851568 57.8411438,18.6770805 58.2421875,19.234375 C58.6432312,19.7916695 59.231767,20.0703125 60.0078125,20.0703125 L60.0078125,20.0703125 Z M74.71875,12.296875 C75.8437556,12.296875 76.7174448,12.6809857 77.3398438,13.4492188 C77.9622427,14.2174518 78.2734375,15.3046805 78.2734375,16.7109375 C78.2734375,18.1171945 77.9596386,19.2096315 77.3320312,19.9882812 C76.7044239,20.766931 75.8333389,21.15625 74.71875,21.15625 C74.1614555,21.15625 73.6523461,21.0533864 73.1914062,20.8476562 C72.7304664,20.6419261 72.3437516,20.325523 72.03125,19.8984375 L71.9375,19.8984375 L71.6640625,21 L70.734375,21 L70.734375,8.84375 L72.03125,8.84375 L72.03125,11.796875 C72.03125,12.4583366 72.0104169,13.0520807 71.96875,13.578125 L72.03125,13.578125 C72.6354197,12.7239541 73.5312441,12.296875 74.71875,12.296875 L74.71875,12.296875 Z M74.53125,13.3828125 C73.6458289,13.3828125 73.0078145,13.6367162 72.6171875,14.1445312 C72.2265605,14.6523463 72.03125,15.5078065 72.03125,16.7109375 C72.03125,17.9140685 72.2317688,18.774737 72.6328125,19.2929688 C73.0338562,19.8112005 73.6770789,20.0703125 74.5625,20.0703125 C75.359379,20.0703125 75.953123,19.7799508 76.34375,19.1992188 C76.734377,18.6184867 76.9296875,17.7838596 76.9296875,16.6953125 C76.9296875,15.5807236 76.734377,14.7500027 76.34375,14.203125 C75.953123,13.6562473 75.3489624,13.3828125 74.53125,13.3828125 L74.53125,13.3828125 Z M79.1796875,12.4375 L80.5703125,12.4375 L82.4453125,17.3203125 C82.8567729,18.4349014 83.1119787,19.2395809 83.2109375,19.734375 L83.2734375,19.734375 C83.3411462,19.4687487 83.4830718,19.0143261 83.6992188,18.3710938 C83.9153657,17.7278614 84.6223898,15.7500166 85.8203125,12.4375 L87.2109375,12.4375 L83.53125,22.1875 C83.1666648,23.1510465 82.7408879,23.8346334 82.2539062,24.2382812 C81.7669246,24.6419291 81.1692744,24.84375 80.4609375,24.84375 C80.0651022,24.84375 79.6744811,24.7994796 79.2890625,24.7109375 L79.2890625,23.671875 C79.5755223,23.7343753 79.8958316,23.765625 80.25,23.765625 C81.1406295,23.765625 81.7760398,23.26563 82.15625,22.265625 L82.6328125,21.046875 L79.1796875,12.4375 Z"/>
    <g transform="translate(106)">
      <path fill="#2E3D49" d="M83.2574009,16.19359 L85.950392,9.58209 L85.9874451,9.58209 L88.2623655,15.16669 L83.2574009,16.19359 Z M85.2400912,7.70609 L79.7261708,21.69349 L81.1845248,21.69349 L82.644277,17.71539 L88.7804097,16.45539 L90.7533124,21.69349 L92.2116664,21.69349 L86.697746,7.70609 L85.2400912,7.70609 Z M157.574029,7.70329 L156.073029,7.70329 L151.735719,13.99979 L151.697268,13.99979 L147.317312,7.70329 L145.797436,7.70329 L151.009339,15.46769 L151.00864,21.69979 L152.40687,21.69979 L152.403374,15.46769 L157.574029,7.70329 Z M129.336073,9.09979 L133.530764,9.09979 L133.530764,21.69979 L134.928994,21.69979 L134.928994,9.09979 L139.822799,9.09979 L139.822799,7.69979 L129.336073,7.69979 L129.336073,9.09979 Z M119.548463,21.69979 L120.946693,21.69979 L120.946693,7.69979 L119.548463,7.69979 L119.548463,21.69979 Z M105.533304,20.30329 C102.320171,20.30329 100.002604,17.64399 100.002604,14.40789 C100.002604,11.21169 102.320171,8.74629 105.494852,8.74629 C108.034737,8.74629 109.61264,10.24849 109.61264,10.24849 L110.324339,9.26639 C110.324339,9.26639 108.689109,7.50869 105.456401,7.50869 C101.588197,7.50869 98.6169584,10.49909 98.6169584,14.42749 C98.6169584,18.37549 101.511295,21.69489 105.514427,21.69489 C108.842914,21.69489 110.689976,19.41569 110.689976,19.41569 L109.92025,18.47139 C109.92025,18.47139 108.266144,20.30329 105.533304,20.30329 L105.533304,20.30329 Z M66.4863301,20.29419 L63.6192593,20.29419 L63.6192593,9.09979 L66.4863301,9.09979 C69.7959407,9.09979 72.028215,11.40069 72.028215,14.72359 C72.028215,18.21379 69.8155159,20.29419 66.4863301,20.29419 L66.4863301,20.29419 Z M66.6212593,7.70399 L62.2210292,7.69979 L62.2210292,21.69979 L66.6212593,21.69979 C70.6817195,21.69979 73.4138611,19.03769 73.4138611,14.72359 C73.4138611,10.44869 70.6817195,7.70399 66.6212593,7.70399 L66.6212593,7.70399 Z M51.7301088,16.05079 C51.7301088,18.38109 49.7879673,20.30889 47.1627903,20.30889 C44.5369142,20.30889 42.6444097,18.38109 42.6444097,16.05079 L42.645808,7.69979 L41.2475779,7.69979 L41.248277,16.07039 C41.248277,19.07479 43.5602504,21.71099 47.1627903,21.71099 C50.764631,21.71099 53.1318345,19.07479 53.1318345,16.07039 L53.1325336,7.69979 L51.7343035,7.69979 L51.7301088,16.05079 Z"/>
      <path fill="#02B3E4" d="M25.7461,15.54854 C25.6468257,16.02664 25.4993124,16.49704 25.308454,16.94644 C25.120392,17.38744 24.8875867,17.81304 24.6170292,18.21134 C24.348569,18.60614 23.5152239,19.64914 22.3637814,20.30854 C21.2116398,20.96724 20.2084097,21.15624 19.5526398,21.28154 C19.9763035,20.16224 20.2699319,19.03594 20.2741265,17.76824 L20.2741265,5.42164 L20.2741265,5.42164 L25.8670469,2.20584 L25.8691442,14.02044 C25.867746,14.52794 25.8481708,15.05714 25.7461,15.54854 L25.7461,15.54854 Z M13.8101088,25.35414 C13.3039496,25.56694 12.5992416,25.84624 12.060923,25.95474 C11.507923,26.06604 10.9982681,26.12204 10.4277903,26.12064 C9.85731239,26.11854 9.28823274,26.05974 8.73593186,25.94424 C8.19831239,25.83294 7.66978142,25.66634 7.16502035,25.45074 C6.66934779,25.23934 6.1911531,24.97754 5.74371947,24.67304 C4.58948053,23.86034 3.9931354,23.15754 3.4820823,22.39454 C3.18076372,21.94514 2.92209115,21.46424 2.71305575,20.96654 C2.50122389,20.45974 2.33833009,19.92984 2.22996726,19.39084 C2.11880796,18.83714 2.09573717,18.26664 2.0971354,17.69544 L2.09923274,6.42894 L9.08828584,2.15264 L9.08828584,13.96724 L9.08758673,13.96724 C9.07430354,18.45634 12.3762239,22.20414 16.5911885,23.10924 C16.4261973,23.30664 16.3066487,23.49704 16.1241796,23.67834 C15.3397726,24.47284 14.6819053,24.98384 13.8101088,25.35414 L13.8101088,25.35414 Z M9.33157788,0.00014 L-0.000209734513,5.35934 L0.000489380531,17.70314 C-0.0162893805,23.37244 4.5601177,27.98264 10.2222504,28.00014 C12.0944805,28.00574 13.8506575,27.50874 15.3642416,26.63584 L22.9230735,22.28674 C25.9054982,20.73764 27.946215,17.62264 27.9574009,14.02604 L27.9581,1.13414 L27.9581,1.13414 L27.9581,1.13414 L26.1082416,0.05124 L18.1788788,4.33874 L18.1795779,4.34014 L18.1795779,4.33944 L18.1767814,17.75984 C18.1753832,18.33104 18.1341354,18.90084 18.0194805,19.45384 C17.9076221,19.99214 17.7419319,20.52134 17.5266044,21.02674 C17.4706752,21.15764 17.4119496,21.28714 17.3490292,21.41524 C17.0358257,21.41734 15.3502593,20.80484 14.4225336,20.17694 C14.0282327,19.90884 13.6577018,19.60014 13.3207283,19.26134 C12.9837549,18.92184 12.6782416,18.54874 12.4125779,18.15184 C12.1441177,17.75214 11.9141088,17.32514 11.7288434,16.88274 C11.5407814,16.43194 11.3960646,15.96084 11.2995867,15.48204 C11.2010115,14.98994 11.1786398,14.48314 11.1800381,13.97494 L11.1807372,13.97494 L11.1870292,1.08374 L9.33157788,0.00014 Z"/>
    </g>
  </g>
</svg>
